<mxfile host="app.diagrams.net" modified="2023-09-28T18:42:36.507Z" agent="Mozilla/5.0 (X11; Linux x86_64; rv:109.0) Gecko/20100101 Firefox/114.0" etag="gVeyatyzUARp82MvvBz9" version="21.8.2" type="github">
  <diagram name="Página-1" id="6ZO3VXrMZo5dbZp6t3HL">
    <mxGraphModel dx="1434" dy="795" grid="1" gridSize="10" guides="1" tooltips="1" connect="1" arrows="1" fold="1" page="1" pageScale="1" pageWidth="827" pageHeight="1169" math="0" shadow="0">
      <root>
        <mxCell id="0" />
        <mxCell id="1" parent="0" />
        <mxCell id="2YI95u4r9ztlRNybl_8E-10" style="rounded=0;orthogonalLoop=1;jettySize=auto;html=1;endArrow=none;endFill=0;" edge="1" parent="1" source="2YI95u4r9ztlRNybl_8E-5" target="2YI95u4r9ztlRNybl_8E-7">
          <mxGeometry relative="1" as="geometry" />
        </mxCell>
        <mxCell id="2YI95u4r9ztlRNybl_8E-12" style="edgeStyle=orthogonalEdgeStyle;rounded=0;orthogonalLoop=1;jettySize=auto;html=1;endArrow=none;endFill=0;" edge="1" parent="1" source="2YI95u4r9ztlRNybl_8E-5" target="2YI95u4r9ztlRNybl_8E-8">
          <mxGeometry relative="1" as="geometry" />
        </mxCell>
        <mxCell id="2YI95u4r9ztlRNybl_8E-5" value="Camionero" style="whiteSpace=wrap;html=1;align=center;fillColor=#dae8fc;strokeColor=#6c8ebf;" vertex="1" parent="1">
          <mxGeometry x="120" y="260" width="100" height="40" as="geometry" />
        </mxCell>
        <mxCell id="2YI95u4r9ztlRNybl_8E-6" value="paquetes" style="whiteSpace=wrap;html=1;align=center;fillColor=#dae8fc;strokeColor=#6c8ebf;" vertex="1" parent="1">
          <mxGeometry x="600" y="260" width="100" height="40" as="geometry" />
        </mxCell>
        <mxCell id="2YI95u4r9ztlRNybl_8E-11" style="edgeStyle=orthogonalEdgeStyle;rounded=0;orthogonalLoop=1;jettySize=auto;html=1;endArrow=none;endFill=0;" edge="1" parent="1" source="2YI95u4r9ztlRNybl_8E-7" target="2YI95u4r9ztlRNybl_8E-6">
          <mxGeometry relative="1" as="geometry" />
        </mxCell>
        <mxCell id="2YI95u4r9ztlRNybl_8E-7" value="lleva" style="shape=rhombus;perimeter=rhombusPerimeter;whiteSpace=wrap;html=1;align=center;fillColor=#f8cecc;strokeColor=#b85450;" vertex="1" parent="1">
          <mxGeometry x="350" y="250" width="120" height="60" as="geometry" />
        </mxCell>
        <mxCell id="2YI95u4r9ztlRNybl_8E-13" style="edgeStyle=orthogonalEdgeStyle;rounded=0;orthogonalLoop=1;jettySize=auto;html=1;endArrow=none;endFill=0;" edge="1" parent="1" source="2YI95u4r9ztlRNybl_8E-8" target="2YI95u4r9ztlRNybl_8E-9">
          <mxGeometry relative="1" as="geometry" />
        </mxCell>
        <mxCell id="2YI95u4r9ztlRNybl_8E-8" value="conduce" style="shape=rhombus;perimeter=rhombusPerimeter;whiteSpace=wrap;html=1;align=center;fillColor=#f8cecc;strokeColor=#b85450;" vertex="1" parent="1">
          <mxGeometry x="110" y="420" width="120" height="60" as="geometry" />
        </mxCell>
        <mxCell id="2YI95u4r9ztlRNybl_8E-31" style="rounded=0;orthogonalLoop=1;jettySize=auto;html=1;entryX=0;entryY=0.5;entryDx=0;entryDy=0;endArrow=none;endFill=0;" edge="1" parent="1" source="2YI95u4r9ztlRNybl_8E-9" target="2YI95u4r9ztlRNybl_8E-25">
          <mxGeometry relative="1" as="geometry" />
        </mxCell>
        <mxCell id="2YI95u4r9ztlRNybl_8E-9" value="camión" style="whiteSpace=wrap;html=1;align=center;fillColor=#dae8fc;strokeColor=#6c8ebf;" vertex="1" parent="1">
          <mxGeometry x="120" y="600" width="100" height="40" as="geometry" />
        </mxCell>
        <mxCell id="2YI95u4r9ztlRNybl_8E-41" style="rounded=0;orthogonalLoop=1;jettySize=auto;html=1;endArrow=none;endFill=0;" edge="1" parent="1" source="2YI95u4r9ztlRNybl_8E-17">
          <mxGeometry relative="1" as="geometry">
            <mxPoint x="170" y="260" as="targetPoint" />
          </mxGeometry>
        </mxCell>
        <mxCell id="2YI95u4r9ztlRNybl_8E-14" value="DNI" style="ellipse;whiteSpace=wrap;html=1;align=center;fontStyle=4;" vertex="1" parent="1">
          <mxGeometry x="120" y="130" width="50" height="30" as="geometry" />
        </mxCell>
        <mxCell id="2YI95u4r9ztlRNybl_8E-38" style="rounded=0;orthogonalLoop=1;jettySize=auto;html=1;entryX=0.5;entryY=0;entryDx=0;entryDy=0;endArrow=none;endFill=0;" edge="1" parent="1" source="2YI95u4r9ztlRNybl_8E-15" target="2YI95u4r9ztlRNybl_8E-5">
          <mxGeometry relative="1" as="geometry" />
        </mxCell>
        <mxCell id="2YI95u4r9ztlRNybl_8E-15" value="nombre" style="ellipse;whiteSpace=wrap;html=1;align=center;" vertex="1" parent="1">
          <mxGeometry x="170" y="150" width="60" height="30" as="geometry" />
        </mxCell>
        <mxCell id="2YI95u4r9ztlRNybl_8E-40" style="rounded=0;orthogonalLoop=1;jettySize=auto;html=1;endArrow=none;endFill=0;" edge="1" parent="1" source="2YI95u4r9ztlRNybl_8E-16">
          <mxGeometry relative="1" as="geometry">
            <mxPoint x="170" y="260" as="targetPoint" />
          </mxGeometry>
        </mxCell>
        <mxCell id="2YI95u4r9ztlRNybl_8E-16" value="teléfono" style="ellipse;whiteSpace=wrap;html=1;align=center;" vertex="1" parent="1">
          <mxGeometry x="70" y="160" width="60" height="30" as="geometry" />
        </mxCell>
        <mxCell id="2YI95u4r9ztlRNybl_8E-18" value="salario" style="ellipse;whiteSpace=wrap;html=1;align=center;" vertex="1" parent="1">
          <mxGeometry x="195" y="200" width="60" height="30" as="geometry" />
        </mxCell>
        <mxCell id="2YI95u4r9ztlRNybl_8E-39" style="rounded=0;orthogonalLoop=1;jettySize=auto;html=1;endArrow=none;endFill=0;entryX=0.5;entryY=0;entryDx=0;entryDy=0;" edge="1" parent="1" source="2YI95u4r9ztlRNybl_8E-19" target="2YI95u4r9ztlRNybl_8E-5">
          <mxGeometry relative="1" as="geometry" />
        </mxCell>
        <mxCell id="2YI95u4r9ztlRNybl_8E-19" value="poblado" style="ellipse;whiteSpace=wrap;html=1;align=center;" vertex="1" parent="1">
          <mxGeometry x="40" y="220" width="60" height="30" as="geometry" />
        </mxCell>
        <mxCell id="2YI95u4r9ztlRNybl_8E-45" style="rounded=0;orthogonalLoop=1;jettySize=auto;html=1;entryX=0.5;entryY=0;entryDx=0;entryDy=0;endArrow=none;endFill=0;" edge="1" parent="1" source="2YI95u4r9ztlRNybl_8E-20" target="2YI95u4r9ztlRNybl_8E-6">
          <mxGeometry relative="1" as="geometry" />
        </mxCell>
        <mxCell id="2YI95u4r9ztlRNybl_8E-20" value="código" style="ellipse;whiteSpace=wrap;html=1;align=center;fontStyle=4;" vertex="1" parent="1">
          <mxGeometry x="540" y="220" width="60" height="30" as="geometry" />
        </mxCell>
        <mxCell id="2YI95u4r9ztlRNybl_8E-43" style="rounded=0;orthogonalLoop=1;jettySize=auto;html=1;entryX=0.5;entryY=0;entryDx=0;entryDy=0;endArrow=none;endFill=0;" edge="1" parent="1" source="2YI95u4r9ztlRNybl_8E-21" target="2YI95u4r9ztlRNybl_8E-6">
          <mxGeometry relative="1" as="geometry" />
        </mxCell>
        <mxCell id="2YI95u4r9ztlRNybl_8E-21" value="descripción" style="ellipse;whiteSpace=wrap;html=1;align=center;" vertex="1" parent="1">
          <mxGeometry x="655" y="190" width="80" height="40" as="geometry" />
        </mxCell>
        <mxCell id="2YI95u4r9ztlRNybl_8E-46" style="rounded=0;orthogonalLoop=1;jettySize=auto;html=1;endArrow=none;endFill=0;" edge="1" parent="1" source="2YI95u4r9ztlRNybl_8E-22">
          <mxGeometry relative="1" as="geometry">
            <mxPoint x="650" y="260" as="targetPoint" />
          </mxGeometry>
        </mxCell>
        <mxCell id="2YI95u4r9ztlRNybl_8E-22" value="destinatario" style="ellipse;whiteSpace=wrap;html=1;align=center;" vertex="1" parent="1">
          <mxGeometry x="565" y="180" width="90" height="40" as="geometry" />
        </mxCell>
        <mxCell id="2YI95u4r9ztlRNybl_8E-44" style="rounded=0;orthogonalLoop=1;jettySize=auto;html=1;entryX=0.5;entryY=0;entryDx=0;entryDy=0;endArrow=none;endFill=0;" edge="1" parent="1" source="2YI95u4r9ztlRNybl_8E-23" target="2YI95u4r9ztlRNybl_8E-6">
          <mxGeometry relative="1" as="geometry" />
        </mxCell>
        <mxCell id="2YI95u4r9ztlRNybl_8E-23" value="dirección" style="ellipse;whiteSpace=wrap;html=1;align=center;" vertex="1" parent="1">
          <mxGeometry x="710" y="230" width="70" height="30" as="geometry" />
        </mxCell>
        <mxCell id="2YI95u4r9ztlRNybl_8E-25" value="matrícula" style="ellipse;whiteSpace=wrap;html=1;align=center;fontStyle=4;" vertex="1" parent="1">
          <mxGeometry x="270" y="600" width="60" height="30" as="geometry" />
        </mxCell>
        <mxCell id="2YI95u4r9ztlRNybl_8E-26" value="modelo" style="ellipse;whiteSpace=wrap;html=1;align=center;" vertex="1" parent="1">
          <mxGeometry x="270" y="555" width="60" height="30" as="geometry" />
        </mxCell>
        <mxCell id="2YI95u4r9ztlRNybl_8E-28" value="tipo" style="ellipse;whiteSpace=wrap;html=1;align=center;" vertex="1" parent="1">
          <mxGeometry x="275" y="640" width="50" height="25" as="geometry" />
        </mxCell>
        <mxCell id="2YI95u4r9ztlRNybl_8E-34" style="rounded=0;orthogonalLoop=1;jettySize=auto;html=1;entryX=1;entryY=0.5;entryDx=0;entryDy=0;endArrow=none;endFill=0;" edge="1" parent="1" source="2YI95u4r9ztlRNybl_8E-29" target="2YI95u4r9ztlRNybl_8E-9">
          <mxGeometry relative="1" as="geometry" />
        </mxCell>
        <mxCell id="2YI95u4r9ztlRNybl_8E-29" value="potencia" style="ellipse;whiteSpace=wrap;html=1;align=center;" vertex="1" parent="1">
          <mxGeometry x="265" y="680" width="65" height="30" as="geometry" />
        </mxCell>
        <mxCell id="2YI95u4r9ztlRNybl_8E-32" value="" style="endArrow=none;html=1;rounded=0;exitX=1;exitY=0.5;exitDx=0;exitDy=0;entryX=0;entryY=0.5;entryDx=0;entryDy=0;" edge="1" parent="1" source="2YI95u4r9ztlRNybl_8E-9" target="2YI95u4r9ztlRNybl_8E-28">
          <mxGeometry relative="1" as="geometry">
            <mxPoint x="180" y="650" as="sourcePoint" />
            <mxPoint x="340" y="650" as="targetPoint" />
          </mxGeometry>
        </mxCell>
        <mxCell id="2YI95u4r9ztlRNybl_8E-33" value="" style="endArrow=none;html=1;rounded=0;exitX=1;exitY=0.5;exitDx=0;exitDy=0;entryX=0;entryY=0.5;entryDx=0;entryDy=0;" edge="1" parent="1" source="2YI95u4r9ztlRNybl_8E-9" target="2YI95u4r9ztlRNybl_8E-26">
          <mxGeometry relative="1" as="geometry">
            <mxPoint x="230" y="530" as="sourcePoint" />
            <mxPoint x="390" y="530" as="targetPoint" />
          </mxGeometry>
        </mxCell>
        <mxCell id="2YI95u4r9ztlRNybl_8E-37" style="rounded=0;orthogonalLoop=1;jettySize=auto;html=1;endArrow=none;endFill=0;" edge="1" parent="1" source="2YI95u4r9ztlRNybl_8E-18">
          <mxGeometry relative="1" as="geometry">
            <mxPoint x="170" y="260" as="targetPoint" />
          </mxGeometry>
        </mxCell>
        <mxCell id="2YI95u4r9ztlRNybl_8E-42" value="" style="rounded=0;orthogonalLoop=1;jettySize=auto;html=1;endArrow=none;endFill=0;" edge="1" parent="1" source="2YI95u4r9ztlRNybl_8E-14" target="2YI95u4r9ztlRNybl_8E-17">
          <mxGeometry relative="1" as="geometry">
            <mxPoint x="170" y="260" as="targetPoint" />
            <mxPoint x="148" y="160" as="sourcePoint" />
          </mxGeometry>
        </mxCell>
        <mxCell id="2YI95u4r9ztlRNybl_8E-17" value="dirección" style="ellipse;whiteSpace=wrap;html=1;align=center;" vertex="1" parent="1">
          <mxGeometry x="130" y="200" width="60" height="30" as="geometry" />
        </mxCell>
        <mxCell id="2YI95u4r9ztlRNybl_8E-48" value="1:n" style="text;html=1;strokeColor=none;fillColor=none;align=center;verticalAlign=middle;whiteSpace=wrap;rounded=0;" vertex="1" parent="1">
          <mxGeometry x="110" y="570" width="60" height="30" as="geometry" />
        </mxCell>
        <mxCell id="2YI95u4r9ztlRNybl_8E-49" value="1:n" style="text;html=1;strokeColor=none;fillColor=none;align=center;verticalAlign=middle;whiteSpace=wrap;rounded=0;" vertex="1" parent="1">
          <mxGeometry x="540" y="250" width="60" height="30" as="geometry" />
        </mxCell>
        <mxCell id="2YI95u4r9ztlRNybl_8E-50" value="1:1" style="text;html=1;strokeColor=none;fillColor=none;align=center;verticalAlign=middle;whiteSpace=wrap;rounded=0;" vertex="1" parent="1">
          <mxGeometry x="220" y="250" width="60" height="30" as="geometry" />
        </mxCell>
        <mxCell id="2YI95u4r9ztlRNybl_8E-55" value="n:m" style="text;html=1;strokeColor=none;fillColor=none;align=center;verticalAlign=middle;whiteSpace=wrap;rounded=0;" vertex="1" parent="1">
          <mxGeometry x="60" y="435" width="60" height="30" as="geometry" />
        </mxCell>
        <mxCell id="2YI95u4r9ztlRNybl_8E-56" value="n:m" style="text;html=1;strokeColor=none;fillColor=none;align=center;verticalAlign=middle;whiteSpace=wrap;rounded=0;" vertex="1" parent="1">
          <mxGeometry x="380" y="220" width="60" height="30" as="geometry" />
        </mxCell>
        <mxCell id="2YI95u4r9ztlRNybl_8E-59" style="edgeStyle=orthogonalEdgeStyle;rounded=0;orthogonalLoop=1;jettySize=auto;html=1;entryX=1;entryY=0.5;entryDx=0;entryDy=0;endArrow=none;endFill=0;" edge="1" parent="1" source="2YI95u4r9ztlRNybl_8E-58" target="2YI95u4r9ztlRNybl_8E-8">
          <mxGeometry relative="1" as="geometry" />
        </mxCell>
        <mxCell id="2YI95u4r9ztlRNybl_8E-58" value="fecha" style="ellipse;whiteSpace=wrap;html=1;align=center;" vertex="1" parent="1">
          <mxGeometry x="270" y="435" width="50" height="30" as="geometry" />
        </mxCell>
        <mxCell id="2YI95u4r9ztlRNybl_8E-60" value="1:n" style="text;html=1;strokeColor=none;fillColor=none;align=center;verticalAlign=middle;whiteSpace=wrap;rounded=0;" vertex="1" parent="1">
          <mxGeometry x="110" y="300" width="60" height="30" as="geometry" />
        </mxCell>
      </root>
    </mxGraphModel>
  </diagram>
</mxfile>
